<?xml version="1.0" encoding="UTF-8" standalone="no"?>
<!-- Created with Inkscape (http://www.inkscape.org/) -->

<svg
   version="1.1"
   id="svg1"
   width="853.33331"
   height="853.33331"
   viewBox="0 0 853.33331 853.33331"
   xmlns="http://www.w3.org/2000/svg"
   xmlns:svg="http://www.w3.org/2000/svg">
  <defs
     id="defs1" />
  <g
     id="g2">
    <path
       style="display:inline;fill:#f47226;fill-opacity:1"
       d="M 408.66666,852.50435 C 313.33146,847.92105 224.41889,813.20542 152,752.28968 135.11616,738.08769 107.06872,709.26227 93.470161,692.13632 81.227699,676.71823 67.994455,657.36676 57.517242,639.56103 28.044097,589.47224 8.7265786,529.38094 2.5799185,468.66666 0.54405274,448.55718 0.54566212,402.4405 2.5828732,383.99999 12.265805,296.35164 45.509104,218.02151 101.04364,152 115.24562,135.11616 144.07104,107.06872 161.197,93.470161 176.61509,81.227699 195.96655,67.994455 213.77228,57.517242 263.86108,28.044097 323.95238,8.7265786 384.66666,2.5799185 c 20.10948,-2.03586576 66.22615,-2.03425638 84.66666,0.00295 87.64835,9.6829315 165.97849,42.9262305 232,98.4607715 16.88384,14.20198 44.93127,43.0274 58.52983,60.15336 12.24246,15.41809 25.47571,34.76955 35.95292,52.57528 29.47315,50.0888 48.79066,110.1801 54.93732,170.89438 2.03587,20.10948 2.03426,66.22615 -0.003,84.66666 -9.68293,87.64835 -42.92623,165.97849 -98.46076,232 -14.20199,16.88384 -43.02741,44.93127 -60.15336,58.52983 -74.386,59.06489 -159.24178,89.73042 -256.13633,92.5636 -9.9,0.28947 -22.2,0.32439 -27.33333,0.0776 z M 289.8446,570.8467 c 3.58119,-1.59747 8.76754,-4.69149 11.5252,-6.8756 4.79254,-3.79577 5.59421,-3.97162 18.1554,-3.98252 45.64248,-0.0396 74.45715,-8.64954 93.95252,-28.07337 23.73987,-23.65275 29.28623,-64.25093 12.63361,-92.47534 -1.76526,-2.99194 -7.20363,-10.49448 -12.08527,-16.67233 -9.50396,-12.02752 -13.1647,-18.28305 -14.60407,-24.95569 -0.75492,-3.49965 0.21132,-6.1299 5.87769,-16 10.19992,-17.76699 13.82416,-30.0308 13.93937,-47.16853 0.0886,-13.17779 -0.16316,-14.54655 -4.17523,-22.70063 -5.41442,-11.00421 -15.92728,-21.53721 -26.89472,-26.94623 -7.09627,-3.4998 -10.44661,-4.28409 -20.31679,-4.75598 -10.01469,-0.47881 -13.50121,-0.0377 -22.83577,2.88893 -11.65346,3.65371 -24.64317,10.67963 -33.05268,17.87763 l -5.07091,4.34039 -9.11315,-2.2962 c -12.58226,-3.1703 -57.11225,-3.23148 -69.70277,-0.0958 l -8.58963,2.13929 -7.41037,-5.69069 c -18.27463,-14.03374 -34.94264,-20.03949 -53.19461,-19.16685 -9.4128,0.45003 -13.2221,1.31993 -20.23882,4.62175 -23.39756,11.01007 -35.90196,33.90466 -31.96792,58.53077 1.91816,12.00719 8.04746,28.19183 15.15472,40.01659 5.56779,9.26343 5.86828,10.24158 4.58357,14.92017 -2.13186,7.76372 -4.69368,12.02584 -15.36029,25.55503 -15.949081,20.2293 -20.387015,31.62137 -20.387015,52.33296 0,15.27238 1.80497,23.47652 8.038781,36.53873 9.619694,20.15691 29.718664,35.36438 55.457014,41.96039 11.72657,3.00519 34.58136,5.23334 54.00761,5.26527 10.24015,0.0168 13.20293,0.46234 14.64709,2.20245 3.10169,3.73731 11.60569,8.47034 18.87774,10.5067 10.92046,3.05801 39.62745,1.9602 48.1497,-1.84133 z m 239.48872,-4.24626 c 0,-8.68831 1.84323,-13.48942 7.04343,-18.3462 l 3.29679,-3.07908 0.92794,4.94637 c 0.51037,2.7205 2.63767,6.65608 4.72733,8.74574 3.0928,3.0928 4.95802,3.79938 10.02956,3.79938 10.18845,0 15.71661,-4.76419 16.91294,-14.57566 l 0.39534,-3.24233 4.28588,4.29744 c 4.73091,4.74367 7.0287,11.22377 7.04002,19.85389 l 0.007,5.66666 h 12.66666 c 14.4815,0 14.04271,0.50993 10.67778,-12.40893 -4.30446,-16.52595 -14.92308,-30.97005 -28.34444,-38.55586 l -7,-3.95643 0.003,-16.87272 0.003,-16.87272 7.37439,-3.85328 c 28.30089,-14.78783 38.53167,-56.17271 21.6954,-87.76079 -4.78186,-8.97169 -17.4489,-21.38384 -24.3812,-23.89059 l -4.69492,-1.69771 0.003,-17.39881 0.003,-17.39882 7.27224,-3.79979 c 13.251,-6.92374 23.68554,-20.97407 28.06587,-37.79127 3.36493,-12.91886 3.80372,-12.40894 -10.67778,-12.40894 h -12.66666 l -0.0318,5 c -0.0574,9.02618 -2.28863,15.27599 -7.21082,20.19819 l -4.75737,4.75737 -0.005,-3.97778 c -0.0226,-18.01907 -27.53803,-20.05137 -31.29034,-2.31111 -1.08444,5.12707 -1.98879,5.3409 -5.63897,1.33333 -4.56161,-5.00822 -5.73237,-8.46235 -5.73237,-16.91234 v -8.08766 h -13.3 -13.3 l 0.75357,4.33334 c 3.7495,21.56128 16.17482,40.23371 31.31657,47.06169 l 5.19653,2.3433 v 17.595 17.59501 l -5.65576,2.53583 c -7.86232,3.52517 -19.60785,15.73813 -24.16542,25.12711 -5.992,12.34405 -8.33991,26.78807 -6.45578,39.71512 2.91272,19.98413 14.7497,38.26884 30.01755,46.36841 l 6.25941,3.32061 v 17.40327 17.40327 l -5.85194,2.84309 c -16.08142,7.81295 -26.62796,23.87791 -30.65055,46.68828 l -0.76418,4.33333 h 13.3 13.3 z m 42.69776,-108.60045 c -0.13832,-13.47492 -17.71798,-20.19453 -26.99034,-10.31673 -1.88448,2.00753 -3.84521,5.63631 -4.35717,8.06394 -0.86814,4.11655 -1.11717,4.29016 -3.69687,2.5773 -6.30338,-4.18529 -7.65338,-9.57411 -7.65338,-30.55024 0,-20.92514 0.84051,-25.01551 6.32074,-30.76014 l 3.48442,-3.65253 2.09742,6.21071 c 2.56067,7.58243 7.16242,11.2302 14.29132,11.32858 9.81796,0.1355 15.53874,-4.92444 16.74409,-14.80988 l 0.39534,-3.24233 4.28588,4.29743 c 5.71321,5.72862 7.03258,11.26695 7.03258,29.52056 0,18.33606 -1.37224,23.99982 -7.37981,30.45923 l -4.53316,4.8741 z m 153.30224,110.7856 c 0,-5.67555 0.21575,-5.9855 6.17436,-8.87001 7.81832,-3.78478 18.7504,-14.69913 23.45696,-23.41891 7.32524,-13.57135 9.65405,-33.77536 5.66042,-49.10794 -4.34487,-16.68107 -15.91669,-32.21291 -28.95841,-38.86832 l -6.33333,-3.23201 0.003,-18.31087 0.003,-18.31087 7.27224,-3.7998 c 39.7355,-20.76207 39.79899,-88.93779 0.10215,-109.68026 -7.18115,-3.7523 -7.37447,-4.00176 -7.37756,-9.51994 l -0.003,-5.66667 h -16 -16 v 5.66896 c 0,5.39312 -0.30456,5.83052 -6.25941,8.98956 -21.02701,11.15481 -33.6994,38.50721 -29.94725,64.63892 2.90883,20.25844 15.8219,39.91531 30.59869,46.57872 l 5.60797,2.52884 -0.0344,18.7975 -0.0344,18.7975 -5.63227,2.58626 c -7.7434,3.55568 -19.73397,15.90447 -24.05978,24.77859 -9.77064,20.04386 -9.35783,43.75651 1.11429,64.00736 3.60152,6.96457 15.31744,18.585 22.3105,22.12866 6.13953,3.11113 6.33606,3.39612 6.33606,9.18825 v 5.97754 h 16 16 z m -35.49285,-33.36955 c -5.89667,-4.15294 -7.17382,-9.73424 -7.17382,-31.35044 0,-21.55705 0.69079,-24.54489 7.04736,-30.48172 l 3.30073,-3.08277 1.50928,4.32953 c 2.1313,6.11383 5.11443,8.96921 11.03649,10.56386 4.26426,1.14825 6.15384,0.93349 11.1216,-1.26398 3.2915,-1.45599 5.99357,-2.83099 6.00461,-3.05556 0.011,-0.22457 0.84297,-2.77254 1.84872,-5.66216 l 1.82863,-5.25385 4.04317,4.04316 c 5.86321,5.86322 7.29933,12.99411 6.67244,33.13121 -0.54966,17.65615 -1.411,21.07013 -6.81207,27 -3.73043,4.09568 -4.93341,3.77094 -4.93928,-1.33333 -0.008,-6.64592 -4.32305,-12.59177 -10.47713,-14.43557 -10.01879,-3.0017 -19.0904,2.51814 -21.0397,12.80212 -1.10463,5.82774 -1.24414,5.97002 -3.97103,4.0495 z m 35.49285,-154.58318 c 0,-13.7889 -18.10621,-20.20017 -27.65999,-9.79417 -1.49533,1.62871 -3.13123,4.9113 -3.63534,7.29463 -1.08444,5.12707 -1.98879,5.34091 -5.63897,1.33334 -5.19836,-5.70732 -5.73237,-8.39264 -5.73237,-28.82555 0,-20.686 0.8747,-25.40521 5.65457,-30.50778 3.7063,-3.95653 4.62682,-3.78946 5.68578,1.03194 4.00545,18.23668 31.19405,16.24341 31.35965,-2.29906 l 0.0333,-3.73288 5.3,5.61503 5.29999,5.61504 v 22.11784 c 0,23.72494 -0.58439,26.36452 -7.20665,32.55117 l -3.46001,3.23242 z"
       id="path6" />
    <path
       style="display:inline;fill:#000000;fill-opacity:1;stroke:#000000;stroke-width:3;stroke-dasharray:none;stroke-opacity:1"
       d="m 247.73342,573.3178 c -8.81186,-1.39743 -19.00029,-6.21987 -23.63251,-11.18583 -3.20359,-3.43441 -3.41167,-3.4654 -23.33333,-3.47475 -43.57206,-0.0204 -69.72896,-8.41517 -89.5825,-28.75041 -20.956829,-21.46529 -26.616451,-60.6044 -12.570786,-86.93323 2.241726,-4.20214 8.012986,-12.44026 12.825026,-18.30692 9.54249,-11.63386 14.52875,-20.2536 15.87872,-27.44956 0.73542,-3.92015 0.0181,-6.03729 -4.64757,-13.71714 -15.7155,-25.86824 -19.99587,-52.29476 -11.48235,-70.89075 8.44203,-18.43982 30.22011,-32.58658 50.14521,-32.57368 14.71674,0.01 34.07434,7.58654 49.65611,19.43657 l 7.99459,6.07994 12.17465,-2.29931 c 14.2543,-2.69207 46.58443,-3.16247 58.84131,-0.85613 18.34098,3.45115 16.59962,3.65934 25.33334,-3.02866 18.24217,-13.96927 40.88926,-21.24179 57.36161,-18.4202 23.47596,4.02126 41.58047,21.52279 46.01571,44.48314 3.058,15.83062 -3.57193,40.11991 -16.44316,60.24088 -4.42302,6.9143 -4.67091,7.83794 -3.37147,12.56229 2.23063,8.10987 5.55326,13.71731 15.69372,26.48549 16.87353,21.24602 20.90078,32.80861 19.7186,56.61378 -1.48657,29.93471 -16.24927,52.39289 -42.97502,65.37698 -17.30883,8.4091 -29.28745,10.74902 -59.32864,11.5893 l -25.99531,0.72712 -5.59736,4.58662 c -8.38201,6.86842 -17.40085,9.77003 -32.27055,10.38231 -7.04447,0.29006 -16.22809,-0.015 -20.40804,-0.67785 z m 256.28239,-1.65115 c 0.0243,-4.60962 3.41079,-16.30694 6.67037,-23.04034 4.23565,-8.74967 14.78136,-19.67278 23.28072,-24.11387 l 7.36008,-3.84579 0.003,-17.54772 0.003,-17.54772 -6.33333,-3.05297 c -18.41853,-8.8786 -31.02231,-31.57633 -30.98418,-55.79838 0.0369,-23.43599 11.83277,-44.74056 30.03894,-54.25341 l 7.27223,-3.79979 0.003,-17.46417 0.003,-17.46417 -5.63577,-2.53583 c -7.52147,-3.38431 -19.86085,-15.64777 -24.03151,-23.88367 -3.84638,-7.59554 -7.66605,-19.66707 -7.66605,-24.2275 0,-3.00389 0.3394,-3.09133 12,-3.09133 h 12 l 0.007,5.66667 c 0.0109,8.31775 2.22549,14.92033 6.56121,19.56173 4.66641,4.99541 6.76469,5.21421 6.76469,0.70539 0,-8.52921 6.27013,-13.93379 16.1653,-13.93379 7.24384,0 13.16803,5.65249 13.16803,12.56411 0,5.82553 2.16764,6.16699 6.99906,1.10256 4.67775,-4.90335 6.33428,-9.72055 6.33428,-18.42013 v -7.24654 h 12.46481 12.46482 l -1.18378,7.66667 c -2.62633,17.00931 -15.15196,34.87957 -29.81958,42.54347 l -7.25327,3.78986 -0.003,16.87272 -0.003,16.87273 7.11787,4.01707 c 34.49642,19.46858 41.75874,70.32317 14.2033,99.45898 -3.74456,3.95932 -10.07226,8.90421 -14.06156,10.98863 l -7.25327,3.78987 -0.003,16.87272 -0.003,16.87272 7.46804,4.2147 c 9.63963,5.44027 17.56335,13.66882 23.01888,23.90444 4.06019,7.61771 8.53846,23.54166 7.25627,25.80208 -0.31198,0.55 -5.93182,1 -12.48854,1 H 583.99999 V 566.579 c 0,-8.7717 -1.15752,-11.94495 -6.41237,-17.57901 -4.71849,-5.059 -6.92097,-4.72148 -6.92097,1.0606 0,11.68222 -16.87623,16.94157 -25.36564,7.905 -1.78004,-1.89477 -3.46862,-5.76021 -3.92263,-8.97958 l -0.79716,-5.65269 -4.81985,4.72923 c -5.2038,5.10596 -7.74217,11.96015 -7.75395,20.93744 l -0.007,5.66666 h -12 c -11.56025,0 -11.99942,-0.10994 -11.98418,-3 z m 37.31751,-113.73287 c 0,-8.52921 6.27013,-13.93379 16.1653,-13.93379 7.29427,0 13.16803,5.64799 13.16803,12.66187 0,6.29853 2.8201,5.92983 8.52258,-1.11426 l 4.14409,-5.11905 0.42997,-20.73849 c 0.23648,-11.40617 0.0778,-22.14159 -0.3526,-23.85649 -0.99439,-3.96198 -8.42743,-12.50025 -10.88216,-12.50025 -1.18874,0 -1.86188,1.47785 -1.86188,4.08766 0,5.49335 -1.96253,8.81307 -6.63998,11.23188 -10.12237,5.23448 -21.04948,-0.29137 -22.61786,-11.43788 l -0.82759,-5.88166 -4.81985,4.72924 c -6.31825,6.19946 -7.74651,11.96501 -7.74651,31.27076 0,18.75989 1.28823,24.43131 6.80181,29.94489 4.94537,4.94537 6.51665,5.10344 6.51665,0.65557 z m 153.33333,110.75533 c 0,-5.82365 -0.16948,-6.06342 -6.58348,-9.31364 -13.41243,-6.79659 -25.55839,-23.12866 -29.31064,-39.41256 -3.26111,-14.15245 -1.1189,-32.8531 5.27687,-46.06499 4.25817,-8.79622 16.00856,-20.92507 23.90341,-24.67329 l 6.71384,-3.18752 v -18.81606 -18.81606 l -5.63577,-2.53583 c -7.6276,-3.43207 -19.87948,-15.68561 -24.19132,-24.19461 -9.98648,-19.70737 -10.00505,-43.6051 -0.0492,-63.25212 4.40408,-8.69103 15.33285,-19.64972 23.54291,-23.60735 6.13687,-2.95827 6.33333,-3.2354 6.33333,-8.93403 v -5.88106 h 14.66667 14.66666 l 0.003,5.66667 c 0.003,5.50678 0.20782,5.7736 7.25644,9.45653 21.14067,11.04609 33.91173,38.10329 30.23994,64.06733 -2.80903,19.86328 -14.43542,37.42834 -30.23994,45.68627 l -7.25327,3.78987 -0.003,18.31087 -0.003,18.31087 6.52949,3.30874 c 22.58929,11.44686 35.8355,41.16257 30.3467,68.07784 -1.17611,5.76724 -3.76597,13.82469 -5.75524,17.90544 -4.47018,9.17005 -16.3503,21.22482 -24.78761,25.15201 -6.179,2.87605 -6.33334,3.09393 -6.33334,8.94105 v 5.99317 h -14.66666 -14.66667 z m 0,-34.75534 c 0,-9.87596 5.70832,-15.26712 16.1653,-15.26712 7.87648,0 13.16803,5.58467 13.16803,13.89744 0,3.35641 0.4665,6.10256 1.03666,6.10256 2.48717,0 7.20622,-4.58232 9.64786,-9.36832 2.29791,-4.50428 2.64882,-7.86875 2.64882,-25.39702 0,-18.31641 -0.27282,-20.69033 -2.91889,-25.39836 -1.60538,-2.8564 -4.28256,-6.08697 -5.94928,-7.17904 -2.93507,-1.92314 -3.07606,-1.816 -4.48221,3.40605 -3.95531,14.68888 -26.00669,13.61852 -29.16871,-1.41582 l -0.97746,-4.64748 -4.78096,4.72923 c -2.62953,2.60108 -5.43946,7.10107 -6.24429,10 -1.75512,6.32176 -1.90026,33.84412 -0.21674,41.10032 1.094,4.71528 8.43376,14.17044 11.00009,14.17044 0.58948,0 1.07178,-2.12979 1.07178,-4.73288 z m 0.0296,-154.26711 c 0.0707,-10.33521 12.38199,-16.30308 22.6637,-10.9862 4.67745,2.4188 6.63998,5.73853 6.63998,11.23188 0,5.12844 2.37207,5.27112 6.99906,0.42098 5.47953,-5.7438 6.33428,-9.83697 6.33428,-30.33333 0,-20.49636 -0.85475,-24.58952 -6.33428,-30.33333 -4.62699,-4.85014 -6.99906,-4.70746 -6.99906,0.42099 0,2.24821 -0.61778,5.242 -1.37286,6.65286 -1.83758,3.43355 -8.20794,6.59282 -13.2938,6.59282 -8.73183,0 -13.96413,-5.33476 -14.94611,-15.23879 l -0.38723,-3.90545 -4.84959,4.5877 c -6.36135,6.01782 -7.8022,11.78388 -7.8022,31.2232 0,18.51277 1.42848,24.98181 6.67493,30.22826 4.90835,4.90836 6.63675,4.7629 6.67318,-0.56159 z"
       id="path2" />
  </g>
</svg>
