<?xml version="1.0" encoding="UTF-8"?>
<svg version="1.1" xmlns="http://www.w3.org/2000/svg" width="64" height="64">
<path d="M0 0 C0 0.66 0 1.32 0 2 C1.1446875 1.7215625 1.1446875 1.7215625 2.3125 1.4375 C5 1 5 1 8 2 C9.6875 3.5625 9.6875 3.5625 11 5 C11.680625 4.649375 12.36125 4.29875 13.0625 3.9375 C16.82921081 2.73535825 19.18353141 3.02853527 23 4 C26.67108401 6.67889914 28.19744977 9.54138759 29 14 C27.8125 17.3125 27.8125 17.3125 26 20 C25.01 20.33 24.02 20.66 23 21 C23.30035156 22.10859375 23.60070313 23.2171875 23.91015625 24.359375 C24.29477053 25.82278543 24.67885757 27.2863345 25.0625 28.75 C25.26166016 29.47960937 25.46082031 30.20921875 25.66601562 30.9609375 C27.34048591 37.42380528 27.34048591 37.42380528 26 41 C14.38929555 48.99550982 0.45155516 50.6098665 -13.24609375 48.5 C-19.68168058 47.05711684 -25.61122853 44.87837947 -31 41 C-33.26616971 36.46766059 -31.93060783 31.55551625 -30.75 26.875 C-30.13180821 24.35535212 -30.13180821 24.35535212 -30 22 C-31.78468339 19.22712063 -31.78468339 19.22712063 -34 17 C-34.71369309 12.20806066 -33.57960975 9.05367246 -31 5 C-29.25 3.5625 -29.25 3.5625 -27 3 C-23.4375 3.375 -23.4375 3.375 -20 4 C-15.43884636 4 -11.43744944 2.28667286 -7.12890625 0.875 C-4 0 -4 0 0 0 Z M-28 11 C-27.67 12.65 -27.34 14.3 -27 16 C-24.02324541 12.90672105 -24.02324541 12.90672105 -23 9 C-25.32357511 8.81509993 -25.32357511 8.81509993 -28 11 Z M17 9 C18.07401108 11.91517292 18.77810176 13.77810176 21 16 C21.33 14.35 21.66 12.7 22 11 C19.525 10.01 19.525 10.01 17 9 Z M-15 11 C-16.3721042 15.71058562 -16.3721042 15.71058562 -15 19 C-11.58357241 19.25015873 -11.58357241 19.25015873 -8 19 C-5.7226499 16.18490007 -5.7226499 16.18490007 -6 13 C-4.02 13 -2.04 13 0 13 C0.144375 13.804375 0.28875 14.60875 0.4375 15.4375 C0.74135249 17.92103706 0.74135249 17.92103706 2 19 C4.33297433 19.04092937 6.66705225 19.04241723 9 19 C10.3721042 15.71058562 10.3721042 15.71058562 9 11 C1.08 11 -6.84 11 -15 11 Z M-13 25 C-13.46650862 29.94499137 -13.11061209 33.05191542 -10 37 C-9.34 37 -8.68 37 -8 37 C-8 37.66 -8 38.32 -8 39 C-6.58376784 39.05447047 -5.16691809 39.09300508 -3.75 39.125 C-2.56664062 39.15980469 -2.56664062 39.15980469 -1.359375 39.1953125 C1.27681784 38.97708462 2.80377903 38.46574922 5 37 C7.06593119 31.98273854 7.07639874 28.27435382 6 23 C-0.68641869 20.51203025 -7.48204895 19.48204895 -13 25 Z " fill="#FD7402" transform="translate(35,8)"/>
<path d="M0 0 C3.3 0 6.6 0 10 0 C10.33 0.66 10.66 1.32 11 2 C9.68 3.32 8.36 4.64 7 6 C7.99 6.33 8.98 6.66 10 7 C10 8.32 10 9.64 10 11 C9.0925 10.814375 8.185 10.62875 7.25 10.4375 C4.31685676 10.04265379 2.7355343 10.05308428 0 11 C0 10.01 0 9.02 0 8 C0.99 7.34 1.98 6.68 3 6 C1.68 5.01 0.36 4.02 -1 3 C-0.67 2.01 -0.34 1.02 0 0 Z " fill="#FD7202" transform="translate(27,32)"/>
<path d="" fill="#FF0000" transform="translate(0,0)"/>
<path d="" fill="#FF0000" transform="translate(0,0)"/>
<path d="" fill="#FF0000" transform="translate(0,0)"/>
<path d="" fill="#FF0000" transform="translate(0,0)"/>
<path d="" fill="#FF0000" transform="translate(0,0)"/>
<path d="" fill="#FF0000" transform="translate(0,0)"/>
<path d="" fill="#FF0000" transform="translate(0,0)"/>
<path d="" fill="#FF0000" transform="translate(0,0)"/>
<path d="" fill="#FF0000" transform="translate(0,0)"/>
<path d="" fill="#FF0000" transform="translate(0,0)"/>
<path d="" fill="#FF0000" transform="translate(0,0)"/>
<path d="" fill="#FF0000" transform="translate(0,0)"/>
<path d="" fill="#FF0000" transform="translate(0,0)"/>
<path d="" fill="#FF0000" transform="translate(0,0)"/>
<path d="" fill="#FF0000" transform="translate(0,0)"/>
<path d="" fill="#FF0000" transform="translate(0,0)"/>
<path d="" fill="#FF0000" transform="translate(0,0)"/>
</svg>
