<?xml version="1.0" encoding="UTF-8" standalone="no"?>
<!-- Created with Inkscape (http://www.inkscape.org/) -->

<svg
   version="1.1"
   id="svg1"
   width="528"
   height="528"
   viewBox="0 0 528 528"
   xmlns:xlink="http://www.w3.org/1999/xlink"
   xmlns="http://www.w3.org/2000/svg"
   xmlns:svg="http://www.w3.org/2000/svg">
  <defs
     id="defs1" />
  <g
     id="g1">
    <path
       style="fill:#68fcbe;fill-opacity:1"
       d="M 241.29397,526.66134 C 18.825986,506.66944 -79.835151,235.67548 77.920162,77.920162 221.12334,-65.28302 467.23379,0.76684568 518.52302,196.16691 564.83854,372.61829 422.00059,542.90039 241.29397,526.66134 Z m 30.8703,-69.14558 c 16.54155,-10.49034 28.39856,-29.44856 21.70899,-34.71058 -9.51923,-7.48782 -57.85126,-7.65368 -61.83383,-0.21219 -3.04166,5.68339 11.93747,26.43673 25.22161,34.94413 7.3025,4.67665 7.49567,4.67638 14.90323,-0.0214 z M 24.376713,322.84148 C 36.294055,303.23783 40.406889,288.01581 37.200439,275.37955 25.695371,230.0394 26.262195,154.66667 38.108233,154.66667 c 11.735259,0 52.217649,12.00493 53.509842,15.86818 32.302315,96.57381 340.576695,100.30004 343.739415,4.15492 0.29645,-9.01217 30.34044,-20.0231 54.63423,-20.0231 11.73601,0 12.24228,75.65105 0.80784,120.71288 -3.2299,12.72869 0.75377,27.2568 13.12233,47.85596 6.42514,10.70073 7.36573,10.62121 9.97948,-0.84369 C 550.75894,160.72078 429.38538,8.0488535 264,8.0488535 98.614616,8.0488535 -22.75894,160.72078 14.098625,322.39182 c 2.628667,11.53031 3.518337,11.56924 10.278088,0.44966 z M 241.27927,231.97314 C 177.37568,227.9479 123.50664,204.45118 108.6732,174.13272 c -8.65246,-17.68499 -1.34743,-22.81058 30.76489,-21.58628 24.12321,0.91971 24.12321,0.91971 21.71796,-8.55151 -14.7452,-58.062748 -10.68871,-68.23945 30.58551,-76.731274 73.39262,-15.099916 186.92511,-2.894986 186.92511,20.094759 0,3.759998 -10.50577,59.813795 -12.74027,67.976055 -0.71477,2.61094 -0.36839,2.64242 16.25002,1.4769 33.30053,-2.33551 44.08408,3.56703 38.35743,20.99549 -11.66291,35.49487 -91.70328,59.68107 -179.25458,54.16628 z"
       id="path1" />
  </g>
</svg>
